<svg xmlns="http://www.w3.org/2000/svg" width="26" height="26" viewBox="0 0 26 26">
    <g fill="none" fill-rule="evenodd" transform="translate(1 1)">
        <g fill="#7F97AB" fill-rule="nonzero">
            <path d="M7.006 8.772H3.13l-.393 1.236v.014h3.735c.356 0 .534.139.534.417v.625H3.14l-.397 1.25h4.262v.626c0 .277-.178.416-.534.416H3.128l-.39 1.23v.02h4.268c.948 0 1.422-.416 1.422-1.25v-3.334c0-.834-.474-1.25-1.422-1.25zm7.826 3.54c0-.832-.475-1.25-1.423-1.25h-2.846v-.585c0-.225.105-.337.473-.337h3.051l.39-1.341V8.77h-3.914c-.95 0-1.423.417-1.423 1.25v3.393c0 .795.475 1.192 1.423 1.192h2.846c.948 0 1.423-.397 1.423-1.191v-1.101zm-1.423.764c0 .225-.149.337-.445.337h-1.946c-.304 0-.455-.117-.455-.35v-.43c0-.213.142-.32.426-.32h2.064c.237 0 .356.111.356.333v.43zm6.402-2.012h-2.845v-1.042h3.775l.381-1.25h-5.578v3.542h3.663c.403 0 .605.07.605.209v.495c0 .264-.157.397-.473.397h-3.415l-.38 1.191h4.268c.949 0 1.423-.397 1.423-1.191v-1.1c0-.834-.474-1.252-1.423-1.252zM3.061 15.4l-.298.717h5.238l.349-.716zM9.41 15.4l-.298.717h5.237l.35-.716zM15.878 15.4l-.298.717h5.238l.349-.716z"/>
        </g>
        <circle cx="12" cy="12" r="12" stroke="#7F97AB" stroke-width=".5"/>
    </g>
</svg>
